<svg id="Layer_1" data-name="Layer 1" xmlns="http://www.w3.org/2000/svg" xmlns:xlink="http://www.w3.org/1999/xlink" viewBox="0 0 275.79 123.37"><defs><style>.cls-1{fill:none;clip-rule:evenodd;}.cls-2{fill:#020000;}.cls-3{fill:#ffcf21;}.cls-3,.cls-4,.cls-5,.cls-7{fill-rule:evenodd;}.cls-4{fill:#55c2e4;}.cls-5{fill:#3ea938;}.cls-6{clip-path:url(#clip-path);}.cls-7{fill:#347121;}</style><clipPath id="clip-path"><path class="cls-1" d="M76.71,50.93A38,38,0,0,1,78,60.32a39,39,0,0,1-59.1,33.39,39,39,0,0,1,37.86-48.3,38.83,38.83,0,0,1,20,5.52Z"/></clipPath></defs><path class="cls-2" d="M125.21,85.83a5.67,5.67,0,0,1,4.62,2.31l.36.48,2.58-1.9-.39-.48a8.76,8.76,0,0,0-3.15-2.65,8.88,8.88,0,0,0-4-1,9,9,0,0,0-9,9,8.66,8.66,0,0,0,.72,3.49,8.18,8.18,0,0,0,1.93,2.86,8.82,8.82,0,0,0,6.33,2.63A8.86,8.86,0,0,0,132.36,97l.38-.48-2.55-1.88-.36.46a5.74,5.74,0,0,1-4.62,2.31,5.78,5.78,0,1,1,0-11.55Z"/><polygon class="cls-2" points="150.47 88.84 143.52 88.84 143.52 83.16 140.29 83.16 140.29 100.29 143.52 100.29 143.52 91.99 150.47 91.99 150.47 100.29 153.7 100.29 153.7 83.16 150.47 83.16 150.47 88.84 150.47 88.84"/><polygon class="cls-2" points="162.26 100.29 173.33 100.29 173.33 97.12 165.48 97.12 165.48 92.01 172.51 92.01 172.51 88.81 165.48 88.81 165.48 86.28 173.55 86.28 173.55 83.16 162.26 83.16 162.26 100.29 162.26 100.29"/><polygon class="cls-2" points="188.89 89.53 184.25 83.16 181.24 83.16 181.24 100.29 184.44 100.29 184.44 88.84 188.89 94.95 193.37 88.84 193.37 100.29 196.57 100.29 196.57 83.16 193.54 83.16 188.89 89.53 188.89 89.53"/><polygon class="cls-2" points="206.45 100.29 209.68 100.29 209.68 83.16 206.45 83.16 206.45 100.29 206.45 100.29"/><path class="cls-2" d="M226.73,85.83a5.66,5.66,0,0,1,4.62,2.31l.36.48,2.58-1.9-.38-.48a9,9,0,0,0-7.18-3.61,9,9,0,0,0-9,9,8.49,8.49,0,0,0,.72,3.49,8.15,8.15,0,0,0,1.92,2.86,8.82,8.82,0,0,0,6.33,2.63A8.86,8.86,0,0,0,233.88,97l.39-.48-2.56-1.88-.36.46a5.73,5.73,0,0,1-4.62,2.31,5.78,5.78,0,1,1,0-11.55Z"/><path class="cls-2" d="M247,92.5l1.59-4.17,1.58,4.17Zm.12-9.34-6.6,17.13h3.44l1.78-4.62h5.69l1.75,4.62h3.47L250,83.16Z"/><polygon class="cls-2" points="266.96 97.14 266.96 83.16 263.74 83.16 263.74 100.29 275.7 100.29 275.7 97.14 266.96 97.14 266.96 97.14"/><path class="cls-2" d="M132.55,52.93l6.59-17.27,6.59,17.27Zm10.18-28.51h-7.25l-19.2,49.92h7.94l5.43-14.11h19L154,74.34h8L142.73,24.42Z"/><polygon class="cls-2" points="194.48 44.73 179.69 24.42 172.31 24.42 172.31 74.33 179.69 74.33 179.69 36.88 194.48 57.19 209.34 36.9 209.34 74.33 216.71 74.33 216.71 24.42 209.26 24.42 194.48 44.73 194.48 44.73"/><path class="cls-2" d="M266.09,72.41a25.84,25.84,0,0,0,9.21-7.73l.42-.53-5.85-4.3-.38.48a18.83,18.83,0,1,1,0-22.61l.38.51,5.9-4.35-.4-.5a25.69,25.69,0,0,0-9.21-7.76,26.15,26.15,0,0,0-37.94,23.32,25,25,0,0,0,2.1,10.17A24,24,0,0,0,236,67.47a26,26,0,0,0,30.14,4.94Z"/><path class="cls-3" d="M95.68,84.39a39,39,0,1,0-39,39,39,39,0,0,0,39-39Z"/><path class="cls-4" d="M78,60.32C78,35.1,48.79,8,39,0,29.16,8,0,35.1,0,60.32a39,39,0,1,0,78,0Z"/><path class="cls-5" d="M76.71,50.93A38,38,0,0,1,78,60.32a39,39,0,0,1-59.1,33.39,39,39,0,0,1,37.86-48.3,38.83,38.83,0,0,1,20,5.52Z"/><g class="cls-6"><polygon class="cls-7" points="56.7 65.72 76.71 50.93 80.57 57.42 22.71 100.19 18.85 93.71 31.46 84.39 31.46 44.31 38.98 44.31 38.98 78.83 49.19 71.28 49.19 43.32 56.7 43.32 56.7 65.72 56.7 65.72"/></g></svg>